<svg id="下地" xmlns="http://www.w3.org/2000/svg" xmlns:xlink="http://www.w3.org/1999/xlink" viewBox="0 0 2981 1830.75"><defs><style>.cls-1,.cls-2{fill:none;}.cls-2{stroke:lime;}.cls-2,.cls-3{stroke-miterlimit:10;}.cls-3{fill:#ff931e;stroke:#000;}.cls-4{fill:url(#ゲルニカ牛);}</style><pattern id="ゲルニカ牛" data-name="ゲルニカ牛" width="526.8" height="526.8" patternTransform="translate(-12810.65 -12766.16) scale(1.35)" patternUnits="userSpaceOnUse" viewBox="0 0 526.8 526.8"><rect class="cls-1" width="526.8" height="526.8"/><path class="cls-2" d="M286.73,405c-7.08,7.43-16.53,39.75,11.8,40.83,1.09,14.52,9.85,16.3,9.85,16.3-9.44,21.06-12,30.88-12,30.88s-4.73,9.09,14.51,9.45,11.67,8.56-6.18,6.54c-13.08,3.64.41,13.27,14.36,7.46C327.32,513,353,520.88,373,554.65c11.46,19.38,21.36,43.86,8,76.86l18.3,3.14s-8.39-82.34-10.67-85.45c-1.37-1.87,9.48-31.81,9.23-60.42-0.23-27.16-10.16-53.13-61.11-52.81,0,0,6.85-24.63-12.76-31,0,0,11.26,17.25,2.18,26.33-8.35-1.45-19.61,0-24,2.91C292,438.57,286.19,427.69,286.73,405Z"/><path class="cls-2" d="M310.89,502.47s1.66,6.53-4.46,6.71"/><path class="cls-2" d="M362.36,459.63c-1.24-.93,3.73-17.79-0.92-38.91,0,0-14.6,16.16-17.09,35.73l20.82,2.8"/><polygon class="cls-2" points="349.5 454.1 359.44 456.13 359.44 430.01 349.5 454.1"/><path class="cls-2" d="M304.77,477.06c0.57,7.6,1.66,22.67,15.64,6.46,8.09-9.38,11.19,9.9,3.59,14.2"/><path class="cls-2" d="M322.13,484.24c3.72,0.08,3.92,10.33-5.57,12.77C319.69,490.69,315.82,484.09,322.13,484.24Z"/><path class="cls-2" d="M303.91,497c6.17-1-1.41-15.78,1.16-16.5C299.4,483.93,297.36,498.07,303.91,497Z"/><path class="cls-2" d="M322.48,434.18c-3.87,2-2.43,14.92,2.87,12.38A25.27,25.27,0,0,0,336.7,436"/><path class="cls-2" d="M300,434.7c0.77,0,.62,10.53-1.51,11.14"/><path class="cls-2" d="M328.5,463.42c-2.66-4.28-13.48-10.08-20.12-1.29"/><path class="cls-2" d="M342.74,468.85c1.56-2.4,11.37-9.6,21.28,2.09"/><path class="cls-2" d="M344.82,470.94c0.73-4.09,10-7.3,17.94,1.15C355.78,478.65,347.43,476,344.82,470.94Z"/><path class="cls-2" d="M326.26,464.45c-1.59-2.57-8.24-7-14.29-1C315.72,469.68,323.75,468.09,326.26,464.45Z"/><circle class="cls-2" cx="318.45" cy="464.18" r="2.89"/><circle class="cls-2" cx="353.33" cy="471.24" r="3.72"/><line class="cls-2" x1="353.44" y1="468.01" x2="353.44" y2="475.01"/><line class="cls-2" x1="318.44" y1="461.01" x2="318.44" y2="467.01"/><path class="cls-2" d="M312.74,473.13c1.84,0.14,12.05-1,18.44,4.54"/><path class="cls-2" d="M308.38,476c1.84,0.14,17.55-1,21.38,5.24"/><path class="cls-2" d="M309.74,478.13c1.84,0.14,12.05-1,18.44,4.54"/><path class="cls-2" d="M344.82,493.69a20.43,20.43,0,0,1-12.37,11.49"/><path class="cls-2" d="M353.33,494.26c-3.14,6.1-12.22,14.18-18,16.74"/><path class="cls-2" d="M364,481.92c1.14,10.49-10.43,23.26-14.52,26.24"/><path class="cls-2" d="M386.22,491.84c2,0.58,8.28,4.33,9,5.22"/><path class="cls-2" d="M391.88,483.27c0.58,0.58,4.51,8,4.51,8"/><line class="cls-2" x1="384.64" y1="502.47" x2="394.14" y2="506.77"/><rect class="cls-1" x="263.4" y="395.1" width="263.4" height="263.4"/><path class="cls-2" d="M23.33,405c-7.08,7.43-16.53,39.75,11.8,40.83,1.09,14.52,9.85,16.3,9.85,16.3C35.54,483.2,33,493,33,493s-4.73,9.09,14.51,9.45S59.16,511,41.31,509c-13.08,3.64.41,13.27,14.36,7.46,8.25-3.43,33.92,4.41,53.89,38.18,11.46,19.38,21.36,43.86,8,76.86l18.3,3.14s-8.39-82.34-10.67-85.45c-1.37-1.87,9.48-31.81,9.23-60.42-0.23-27.16-10.16-53.13-61.11-52.81,0,0,6.85-24.63-12.76-31,0,0,11.26,17.25,2.18,26.33-8.35-1.45-19.61,0-24,2.91C28.59,438.57,22.79,427.69,23.33,405Z"/><path class="cls-2" d="M47.49,502.47S49.15,509,43,509.18"/><path class="cls-2" d="M99,459.63c-1.24-.93,3.73-17.79-0.92-38.91,0,0-14.6,16.16-17.09,35.73l20.82,2.8"/><polygon class="cls-2" points="86.1 454.1 96.04 456.13 96.04 430.01 86.1 454.1"/><path class="cls-2" d="M41.37,477.06c0.57,7.6,1.66,22.67,15.64,6.46,8.09-9.38,11.19,9.9,3.59,14.2"/><path class="cls-2" d="M58.73,484.24c3.72,0.08,3.92,10.33-5.57,12.77C56.29,490.69,52.42,484.09,58.73,484.24Z"/><path class="cls-2" d="M40.51,497c6.17-1-1.41-15.78,1.16-16.5C36,483.93,34,498.07,40.51,497Z"/><path class="cls-2" d="M59.08,434.18c-3.87,2-2.43,14.92,2.87,12.38A25.27,25.27,0,0,0,73.3,436"/><path class="cls-2" d="M36.64,434.7c0.77,0,.62,10.53-1.51,11.14"/><path class="cls-2" d="M65.1,463.42c-2.66-4.28-13.48-10.08-20.12-1.29"/><path class="cls-2" d="M79.34,468.85c1.56-2.4,11.37-9.6,21.28,2.09"/><path class="cls-2" d="M81.42,470.94c0.73-4.09,10-7.3,17.94,1.15C92.38,478.65,84,476,81.42,470.94Z"/><path class="cls-2" d="M62.86,464.45c-1.59-2.57-8.24-7-14.29-1C52.32,469.68,60.35,468.09,62.86,464.45Z"/><circle class="cls-2" cx="55.05" cy="464.18" r="2.89"/><circle class="cls-2" cx="89.93" cy="471.24" r="3.72"/><line class="cls-2" x1="90.04" y1="468.01" x2="90.04" y2="475.01"/><line class="cls-2" x1="55.04" y1="461.01" x2="55.04" y2="467.01"/><path class="cls-2" d="M49.34,473.13c1.84,0.14,12.05-1,18.44,4.54"/><path class="cls-2" d="M45,476c1.84,0.14,17.55-1,21.38,5.24"/><path class="cls-2" d="M46.34,478.13c1.84,0.14,12.05-1,18.44,4.54"/><path class="cls-2" d="M81.42,493.69a20.43,20.43,0,0,1-12.37,11.49"/><path class="cls-2" d="M89.93,494.26c-3.14,6.1-12.22,14.18-18,16.74"/><path class="cls-2" d="M100.62,481.92c1.14,10.49-10.43,23.26-14.52,26.24"/><path class="cls-2" d="M122.82,491.84c2,0.58,8.28,4.33,9,5.22"/><path class="cls-2" d="M128.49,483.27c0.58,0.58,4.51,8,4.51,8"/><line class="cls-2" x1="121.24" y1="502.47" x2="130.74" y2="506.77"/><rect class="cls-1" y="395.1" width="263.4" height="263.4"/><path class="cls-2" d="M418.43,141.61c-7.08,7.43-16.53,39.75,11.8,40.83,1.09,14.52,9.85,16.3,9.85,16.3-9.44,21.06-12,30.88-12,30.88s-4.73,9.09,14.51,9.45,11.67,8.56-6.18,6.54c-13.08,3.64.41,13.27,14.36,7.46,8.25-3.43,33.92,4.41,53.89,38.18,11.46,19.38,21.36,43.86,8,76.86l18.3,3.14s-8.39-82.34-10.67-85.45c-1.37-1.87,9.48-31.81,9.23-60.42-0.23-27.16-10.16-53.13-61.11-52.81,0,0,6.85-24.63-12.76-31,0,0,11.26,17.25,2.18,26.33-8.35-1.45-19.61,0-24,2.91C423.69,175.17,417.89,164.29,418.43,141.61Z"/><path class="cls-2" d="M442.59,239.07s1.66,6.53-4.46,6.71"/><path class="cls-2" d="M494.06,196.23c-1.24-.93,3.73-17.79-0.92-38.91,0,0-14.6,16.16-17.09,35.73l20.82,2.8"/><polygon class="cls-2" points="481.2 190.7 491.14 192.73 491.14 166.61 481.2 190.7"/><path class="cls-2" d="M436.47,213.66c0.57,7.6,1.66,22.67,15.64,6.46,8.09-9.38,11.19,9.9,3.59,14.2"/><path class="cls-2" d="M453.83,220.84c3.72,0.08,3.92,10.33-5.57,12.77C451.39,227.29,447.52,220.69,453.83,220.84Z"/><path class="cls-2" d="M435.61,233.6c6.17-1-1.41-15.78,1.16-16.5C431.1,220.53,429.06,234.67,435.61,233.6Z"/><path class="cls-2" d="M454.18,170.78c-3.87,2-2.43,14.92,2.87,12.38a25.27,25.27,0,0,0,11.35-10.59"/><path class="cls-2" d="M431.74,171.3c0.77,0,.62,10.53-1.51,11.14"/><path class="cls-2" d="M460.2,200c-2.66-4.28-13.48-10.08-20.12-1.29"/><path class="cls-2" d="M474.44,205.45c1.56-2.4,11.37-9.6,21.28,2.09"/><path class="cls-2" d="M476.52,207.54c0.73-4.09,10-7.3,17.94,1.15C487.48,215.25,479.13,212.57,476.52,207.54Z"/><path class="cls-2" d="M458,201.05c-1.59-2.57-8.24-7-14.29-1C447.42,206.28,455.45,204.69,458,201.05Z"/><circle class="cls-2" cx="450.15" cy="200.78" r="2.89"/><circle class="cls-2" cx="485.03" cy="207.84" r="3.72"/><line class="cls-2" x1="485.14" y1="204.61" x2="485.14" y2="211.61"/><line class="cls-2" x1="450.14" y1="197.61" x2="450.14" y2="203.61"/><path class="cls-2" d="M444.44,209.73c1.84,0.14,12.05-1,18.44,4.54"/><path class="cls-2" d="M440.08,212.58c1.84,0.14,17.55-1,21.38,5.24"/><path class="cls-2" d="M441.44,214.73c1.84,0.14,12.05-1,18.44,4.54"/><path class="cls-2" d="M476.52,230.29a20.43,20.43,0,0,1-12.37,11.49"/><path class="cls-2" d="M485,230.86c-3.14,6.1-12.22,14.18-18,16.74"/><path class="cls-2" d="M495.72,218.52c1.14,10.49-10.43,23.26-14.52,26.24"/><path class="cls-2" d="M517.92,228.44c2,0.58,8.28,4.33,9,5.22"/><path class="cls-2" d="M523.58,219.87c0.58,0.58,4.51,8,4.51,8"/><line class="cls-2" x1="516.34" y1="239.07" x2="525.84" y2="243.37"/><rect class="cls-1" x="395.1" y="131.7" width="263.4" height="263.4"/><path class="cls-2" d="M155,141.61c-7.08,7.43-16.53,39.75,11.8,40.83,1.09,14.52,9.85,16.3,9.85,16.3-9.44,21.06-12,30.88-12,30.88s-4.73,9.09,14.51,9.45,11.67,8.56-6.18,6.54c-13.08,3.64.41,13.27,14.36,7.46,8.25-3.43,33.92,4.41,53.89,38.18,11.46,19.38,21.36,43.86,8,76.86l18.3,3.14s-8.39-82.34-10.67-85.45c-1.37-1.87,9.48-31.81,9.23-60.42C265.88,198.22,256,172.25,205,172.58c0,0,6.85-24.63-12.76-31,0,0,11.26,17.25,2.18,26.33-8.35-1.45-19.61,0-24,2.91C160.29,175.17,154.49,164.29,155,141.61Z"/><path class="cls-2" d="M179.19,239.07s1.66,6.53-4.46,6.71"/><path class="cls-2" d="M230.66,196.23c-1.24-.93,3.73-17.79-0.92-38.91,0,0-14.6,16.16-17.09,35.73l20.82,2.8"/><polygon class="cls-2" points="217.8 190.7 227.74 192.73 227.74 166.61 217.8 190.7"/><path class="cls-2" d="M173.07,213.66c0.57,7.6,1.66,22.67,15.64,6.46,8.09-9.38,11.19,9.9,3.59,14.2"/><path class="cls-2" d="M190.43,220.84c3.72,0.08,3.92,10.33-5.57,12.77C188,227.29,184.12,220.69,190.43,220.84Z"/><path class="cls-2" d="M172.21,233.6c6.17-1-1.41-15.78,1.16-16.5C167.7,220.53,165.66,234.67,172.21,233.6Z"/><path class="cls-2" d="M190.78,170.78c-3.87,2-2.43,14.92,2.87,12.38A25.27,25.27,0,0,0,205,172.58"/><path class="cls-2" d="M168.34,171.3c0.77,0,.62,10.53-1.51,11.14"/><path class="cls-2" d="M196.8,200c-2.66-4.28-13.48-10.08-20.12-1.29"/><path class="cls-2" d="M211,205.45c1.56-2.4,11.37-9.6,21.28,2.09"/><path class="cls-2" d="M213.12,207.54c0.73-4.09,10-7.3,17.94,1.15C224.08,215.25,215.73,212.57,213.12,207.54Z"/><path class="cls-2" d="M194.56,201.05c-1.59-2.57-8.24-7-14.29-1C184,206.28,192.05,204.69,194.56,201.05Z"/><circle class="cls-2" cx="186.75" cy="200.78" r="2.89"/><circle class="cls-2" cx="221.63" cy="207.84" r="3.72"/><line class="cls-2" x1="221.74" y1="204.61" x2="221.74" y2="211.61"/><line class="cls-2" x1="186.74" y1="197.61" x2="186.74" y2="203.61"/><path class="cls-2" d="M181,209.73c1.84,0.14,12.05-1,18.44,4.54"/><path class="cls-2" d="M176.68,212.58c1.84,0.14,17.55-1,21.38,5.24"/><path class="cls-2" d="M178,214.73c1.84,0.14,12.05-1,18.44,4.54"/><path class="cls-2" d="M213.12,230.29a20.43,20.43,0,0,1-12.37,11.49"/><path class="cls-2" d="M221.63,230.86c-3.14,6.1-12.22,14.18-18,16.74"/><path class="cls-2" d="M232.32,218.52c1.14,10.49-10.43,23.26-14.52,26.24"/><path class="cls-2" d="M254.52,228.44c2,0.58,8.28,4.33,9,5.22"/><path class="cls-2" d="M260.19,219.87c0.58,0.58,4.51,8,4.51,8"/><line class="cls-2" x1="252.94" y1="239.07" x2="262.44" y2="243.37"/><rect class="cls-1" x="131.7" y="131.7" width="263.4" height="263.4"/><path class="cls-2" d="M-108.37,141.61c-7.08,7.43-16.53,39.75,11.8,40.83,1.09,14.52,9.85,16.3,9.85,16.3-9.44,21.06-12,30.88-12,30.88s-4.73,9.09,14.51,9.45,11.67,8.56-6.18,6.54c-13.08,3.64.41,13.27,14.36,7.46,8.25-3.43,33.92,4.41,53.89,38.18,11.46,19.38,21.36,43.86,8,76.86l18.3,3.14s-8.39-82.34-10.67-85.45C-7.89,283.93,3,254,2.71,225.38,2.48,198.22-7.45,172.25-58.4,172.58c0,0,6.85-24.63-12.76-31,0,0,11.26,17.25,2.18,26.33-8.35-1.45-19.61,0-24,2.91C-103.11,175.17-108.91,164.29-108.37,141.61Z"/><path class="cls-2" d="M-8.88,228.44c2,0.58,8.28,4.33,9,5.22"/><path class="cls-2" d="M-3.21,219.87c0.58,0.58,4.51,8,4.51,8"/><rect class="cls-1" x="-131.7" y="131.7" width="263.4" height="263.4"/><path class="cls-2" d="M286.73-121.79C279.65-114.36,270.21-82,298.53-81c1.09,14.52,9.85,16.3,9.85,16.3-9.44,21.06-12,30.88-12,30.88s-4.73,9.09,14.51,9.45,11.67,8.56-6.18,6.54c-13.08,3.64.41,13.27,14.36,7.46C327.32-13.76,353-5.92,373,27.85c11.46,19.38,21.36,43.86,8,76.86l18.3,3.14s-8.39-82.34-10.67-85.45c-1.37-1.87,9.48-31.81,9.23-60.42-0.23-27.16-10.16-53.13-61.11-52.81,0,0,6.85-24.63-12.76-31,0,0,11.26,17.25,2.18,26.33-8.35-1.45-19.61,0-24,2.91C292-88.23,286.19-99.11,286.73-121.79Z"/><rect class="cls-1" x="263.4" y="-131.7" width="263.4" height="263.4"/><path class="cls-2" d="M23.33-121.79C16.25-114.36,6.81-82,35.13-81,36.22-66.44,45-64.66,45-64.66,35.54-43.6,33-33.78,33-33.78s-4.73,9.09,14.51,9.45,11.67,8.56-6.18,6.54c-13.08,3.64.41,13.27,14.36,7.46,8.25-3.43,33.92,4.41,53.89,38.18,11.46,19.38,21.36,43.86,8,76.86l18.3,3.14s-8.39-82.34-10.67-85.45c-1.37-1.87,9.48-31.81,9.23-60.42-0.23-27.16-10.16-53.13-61.11-52.81,0,0,6.85-24.63-12.76-31,0,0,11.26,17.25,2.18,26.33-8.35-1.45-19.61,0-24,2.91C28.59-88.23,22.79-99.11,23.33-121.79Z"/><rect class="cls-1" y="-131.7" width="263.4" height="263.4"/></pattern></defs><title>guernica-wallpaper</title><rect class="cls-3" x="0.5" y="0.5" width="2980" height="1825.98"/><rect class="cls-4" x="0.5" y="4.77" width="2980" height="1825.98"/></svg>