<?xml version="1.0" encoding="utf-8"?>
<!-- Generator: Adobe Illustrator 19.2.1, SVG Export Plug-In . SVG Version: 6.00 Build 0)  -->
<svg version="1.1" id="レイヤー_1" xmlns="http://www.w3.org/2000/svg" xmlns:xlink="http://www.w3.org/1999/xlink" x="0px"
	 y="0px" viewBox="0 0 500 500.1" style="enable-background:new 0 0 500 500.1;" xml:space="preserve">
<style type="text/css">
	.st0{enable-background:new    ;}
	.st1{fill:#040000;}
</style>
<g id="Shopping_Cart">
	<g id="_x37_-ecommerce_-_trolley_shop_cart_fill" class="st0">
		<g id="_x37_-ecommerce_-_trolley_shop_cart_fill_1_">
			<g>
				<path class="st1" d="M500,78.2c0-0.4-0.2-0.7-0.2-1.1c-0.1-0.8-0.3-1.5-0.5-2.2c-0.3-1.5-0.8-2.8-1.5-4.1
					c-0.2-0.3-0.4-0.5-0.6-0.8c-1-1.5-2.1-2.8-3.5-3.9c-0.3-0.2-0.6-0.4-0.8-0.6c-1.3-0.9-2.7-1.6-4.3-2.1c-0.4-0.1-0.7-0.4-1.1-0.5
					c-0.7-0.2-1.4,0-2.1-0.1c-0.4,0-0.8-0.3-1.2-0.3h-2.8c-0.2,0-0.4,0-0.6,0h-89.3L301.3,9.4c-12.1-12.6-31.8-12.6-44,0l-73.5,53.2
					H93.8V31.4h15.6c8.6,0,15.6-7,15.6-15.6c0-8.6-7-15.6-15.6-15.6H15.6C7,0.1,0,7.1,0,15.7c0,8.6,7,15.6,15.6,15.6h46.9v328.1
					c0,8.6,7,15.6,15.6,15.6h78.1h187.5h125c8.6,0,15.6-7,15.6-15.6c0-8.6-7-15.6-15.6-15.6h-375v-32.6l339.8-30.6
					c0.3,0.1,0.4,0.3,0.7,0.3c8.9,2.3,18-2.8,20.4-11.4l44.8-186.9c0.2-0.8,0.1-1.6,0.2-2.4C499.7,79.6,500,79,500,78.2z
					 M279.3,32.3l51.6,30.3h-96.8L279.3,32.3z M424.9,251.2L93.8,281V93.9h46.9l0,0h46.9l0,0h196.6l0.4,0.2l0.2-0.2h77.8
					L424.9,251.2z M281.3,437.6c0,34.5,28,62.5,62.5,62.5c34.5,0,62.5-28,62.5-62.5c0-34.5-28-62.5-62.5-62.5
					C309.2,375.1,281.3,403.1,281.3,437.6z M343.8,406.4c17.3,0,31.2,14,31.2,31.2c0,17.3-14,31.2-31.2,31.2
					c-17.3,0-31.3-14-31.3-31.2C312.5,420.4,326.5,406.4,343.8,406.4z M93.8,437.6c0,34.5,28,62.5,62.5,62.5
					c34.5,0,62.5-28,62.5-62.5c0-34.5-28-62.5-62.5-62.5C121.7,375.1,93.8,403.1,93.8,437.6z M156.3,406.4c17.3,0,31.3,14,31.3,31.2
					c0,17.3-14,31.2-31.3,31.2c-17.3,0-31.3-14-31.3-31.2C125,420.4,139,406.4,156.3,406.4z"/>
			</g>
		</g>
	</g>
	<g id="Layer_1">
	</g>
</g>
<g>
</g>
<g>
</g>
<g>
</g>
<g>
</g>
<g>
</g>
<g>
</g>
</svg>
